<svg xmlns="http://www.w3.org/2000/svg" width="16" height="16" viewBox="0 0 16 16">
    <g fill="none" fill-rule="evenodd">
        <g fill="#F3BA2F" fill-rule="nonzero">
            <g>
                <g>
                    <g>
                        <g>
                            <path d="M4.941 6.65L8.014 3.577 11.09 6.652 12.878 4.864 8.014 0 3.153 4.862z" transform="translate(-659.000000, -778.000000) translate(53.000000, 665.000000) translate(0.000000, 80.000000) translate(598.000000, 25.000000) translate(8.000000, 8.000000)"/>
                            <path d="M0.625 6.648L3.154 6.648 3.154 9.178 0.625 9.178z" transform="translate(-659.000000, -778.000000) translate(53.000000, 665.000000) translate(0.000000, 80.000000) translate(598.000000, 25.000000) translate(8.000000, 8.000000) translate(1.889550, 7.912952) rotate(45.000000) translate(-1.889550, -7.912952)"/>
                            <path d="M4.941 9.176L8.014 12.249 11.089 9.175 12.879 10.962 12.878 10.963 8.014 15.826 3.152 10.964 3.15 10.962z" transform="translate(-659.000000, -778.000000) translate(53.000000, 665.000000) translate(0.000000, 80.000000) translate(598.000000, 25.000000) translate(8.000000, 8.000000)"/>
                            <path d="M12.875 6.649L15.404 6.649 15.404 9.178 12.875 9.178z" transform="translate(-659.000000, -778.000000) translate(53.000000, 665.000000) translate(0.000000, 80.000000) translate(598.000000, 25.000000) translate(8.000000, 8.000000) translate(14.139378, 7.913794) rotate(135.000000) translate(-14.139378, -7.913794)"/>
                            <path d="M9.828 7.912L9.829 7.912 8.014 6.098 6.673 7.439 6.673 7.439 6.519 7.593 6.201 7.911 6.201 7.911 6.199 7.913 6.201 7.916 8.014 9.729 9.829 7.914 9.83 7.913z" transform="translate(-659.000000, -778.000000) translate(53.000000, 665.000000) translate(0.000000, 80.000000) translate(598.000000, 25.000000) translate(8.000000, 8.000000)"/>
                        </g>
                    </g>
                </g>
            </g>
        </g>
    </g>
</svg>
