<svg width="20" height="19" viewBox="0 0 20 19" fill="none" xmlns="http://www.w3.org/2000/svg">
<path d="M19.3332 8.28609L18.8088 7.40852L15.9374 2.58843H15.9243L15.8325 2.41815H14.7836L10.7061 9.5828L14.8492 16.7081H15.8981L15.9243 16.6689L19.3463 10.814H17.2354L15.413 14.0492L12.817 9.5697L15.3605 5.09016L17.2092 8.27299L19.3332 8.28609Z" fill="#41E6AF"/>
<path d="M3.37682 7.12039L5.29105 3.85897L4.64861 2.82422L4.20283 2.09073L0.92503 7.86698L0.833252 8.02416L1.3577 8.94102H9.60463L13.7609 1.82877L13.184 0.833313L7.41506 0.846411H7.32329L6.4055 0.833313L6.89062 1.75018L7.37573 2.66704L11.1518 2.65395L8.55574 7.12039H3.37682Z" fill="#41E6AF"/>
<path d="M7.4545 3.34814C7.31027 3.34814 7.15294 3.37434 6.99561 3.42673C6.82516 3.47913 6.65472 3.55771 6.49738 3.6494C6.0516 3.92446 5.73693 4.3174 5.68449 4.68415C5.65827 4.85442 5.6976 4.9985 5.78938 5.10329C5.80249 5.12948 5.82871 5.14258 5.84182 5.16878C5.85493 5.18188 5.86805 5.18187 5.88116 5.19497C5.89427 5.20807 5.89427 5.20807 5.90738 5.22117C5.9336 5.23427 5.94671 5.24737 5.97293 5.26046C6.24827 5.39144 6.68094 5.36525 7.1005 5.16878L7.11361 5.15568C7.15294 5.14258 7.19227 5.11638 7.23161 5.10329C7.27094 5.09019 7.29716 5.06399 7.3365 5.0378C7.37583 5.0116 7.41516 4.9854 7.4545 4.95921C7.49383 4.93301 7.52005 4.90682 7.55939 4.88062L7.58561 4.86752C7.61183 4.84132 7.63805 4.82823 7.66428 4.80203C7.67739 4.78893 7.67739 4.78893 7.6905 4.77583C7.71672 4.76274 7.72983 4.73654 7.74294 4.72344C7.75605 4.71034 7.76917 4.69725 7.78228 4.67105C7.79539 4.64485 7.82161 4.63176 7.83472 4.60556C7.84783 4.59246 7.84783 4.59246 7.86094 4.57936C7.87406 4.55317 7.90028 4.54007 7.91339 4.51387L7.93961 4.48768C7.95272 4.46148 7.96583 4.44838 7.97894 4.42219C7.97894 4.42219 7.97894 4.42219 7.97894 4.40909L7.99206 4.38289C8.01828 4.3567 8.03139 4.3174 8.0445 4.29121C8.05761 4.26501 8.07072 4.22572 8.08383 4.19952L8.09695 4.18642C8.09695 4.17332 8.11006 4.16023 8.11006 4.16023C8.11006 4.14713 8.11006 4.14713 8.12317 4.13403C8.12317 4.10783 8.13628 4.09473 8.13628 4.06854C8.13628 4.04234 8.14939 4.04234 8.14939 4.02924C8.14939 4.01615 8.14939 4.00305 8.14939 4.00305C8.14939 3.97685 8.14939 3.96375 8.14939 3.95066V3.92446C8.14939 3.89826 8.14939 3.88517 8.14939 3.85897C8.14939 3.84587 8.14939 3.84587 8.14939 3.83277C8.14939 3.81968 8.14939 3.80658 8.14939 3.80658C8.14939 3.79348 8.14939 3.79348 8.14939 3.78038V3.76728C8.14939 3.74109 8.13628 3.72799 8.12317 3.70179C8.11006 3.6756 8.09695 3.6625 8.08383 3.6363C7.99206 3.43983 7.74294 3.34814 7.4545 3.34814Z" fill="#41E6AF"/>
<path d="M8.41167 4.30436C8.41167 4.33055 8.39856 4.34365 8.38545 4.36985C8.38545 4.38295 8.38545 4.38295 8.37234 4.39604C8.35923 4.43534 8.34611 4.46153 8.31989 4.50083C8.17567 4.77589 7.93967 5.03785 7.65122 5.24742C7.61189 5.27361 7.57255 5.29981 7.53322 5.32601C7.49389 5.3522 7.45455 5.3784 7.41522 5.3915H7.40211C7.389 5.40459 7.37589 5.40459 7.36278 5.41769C7.33655 5.43079 7.32344 5.44389 7.29722 5.45699H7.28411C7.271 5.45699 7.25789 5.47009 7.24478 5.47009C7.21855 5.48318 7.19233 5.49628 7.16611 5.49628L7.13989 5.50938C7.13989 5.50938 7.13989 5.50938 7.12678 5.50938C7.11366 5.50938 7.10055 5.52248 7.08744 5.52248C7.06122 5.53558 7.035 5.53558 7.00877 5.54867L6.98255 5.56177H6.96944C6.94322 5.57487 6.917 5.57487 6.89077 5.58797C6.87766 5.58797 6.86455 5.60107 6.83833 5.60107H6.82522C6.799 5.60107 6.77277 5.61416 6.75966 5.61416C6.74655 5.61416 6.72033 5.61416 6.70722 5.62726H6.69411C6.681 5.62726 6.66788 5.62726 6.65477 5.64036C6.64166 5.64036 6.62855 5.64036 6.61544 5.64036C6.57611 5.64036 6.52366 5.65346 6.48433 5.65346H6.47122C6.43188 5.65346 6.39255 5.65346 6.35322 5.65346C6.3401 5.65346 6.32699 5.65346 6.32699 5.65346H6.31388C6.28766 5.65346 6.26144 5.65346 6.23522 5.64036C6.2221 5.64036 6.20899 5.64036 6.19588 5.62726C6.16966 5.62726 6.14344 5.61416 6.11721 5.61416C6.1041 5.61416 6.09099 5.60107 6.07788 5.60107L6.799 6.76679L8.34611 6.7537L9.1459 5.3391L8.42478 4.16028C8.42478 4.17338 8.42478 4.18647 8.41167 4.19957C8.41167 4.21267 8.41167 4.21267 8.41167 4.22577C8.41167 4.23887 8.39856 4.25196 8.39856 4.27816C8.41167 4.29126 8.41167 4.30436 8.41167 4.30436Z" fill="#41E6AF"/>
<path d="M16.6322 8.56118C16.7109 8.67907 16.7633 8.82314 16.8027 8.99342C16.842 9.16369 16.8682 9.34707 16.8682 9.53044C16.8682 10.0544 16.6978 10.5259 16.4093 10.7617C16.2782 10.8664 16.134 10.9188 15.9898 10.8926C15.9635 10.8926 15.9373 10.8795 15.9111 10.8795C15.898 10.8795 15.8849 10.8664 15.8718 10.8664C15.8587 10.8664 15.8455 10.8533 15.8324 10.8533C15.8062 10.8402 15.78 10.8271 15.7669 10.8141C15.5047 10.6438 15.308 10.2639 15.2555 9.8055V9.7924C15.2555 9.75311 15.2424 9.71381 15.2424 9.66142C15.2424 9.62213 15.2424 9.58283 15.2424 9.54354C15.2424 9.49115 15.2424 9.45185 15.2424 9.39946C15.2424 9.36016 15.2424 9.32087 15.2555 9.28158V9.25538C15.2555 9.22918 15.2687 9.18989 15.2687 9.16369C15.2687 9.1506 15.2687 9.1375 15.2687 9.1244C15.2687 9.0982 15.2818 9.07201 15.2818 9.04581C15.2818 9.01962 15.2949 9.00652 15.2949 8.98032C15.308 8.95412 15.308 8.92793 15.3211 8.90173C15.3211 8.88863 15.3342 8.87554 15.3342 8.86244C15.3473 8.83624 15.3473 8.81005 15.3604 8.78385L15.3735 8.74456C15.3867 8.71836 15.3998 8.70526 15.3998 8.67906C15.3998 8.67906 15.3998 8.67906 15.3998 8.66597L15.4129 8.63977C15.426 8.60048 15.4522 8.57428 15.4653 8.54808C15.4784 8.52189 15.5047 8.49569 15.5178 8.4695L15.5309 8.4564C15.544 8.4433 15.544 8.4433 15.5571 8.4302C15.5702 8.4171 15.5702 8.4171 15.5702 8.40401C15.5833 8.39091 15.5964 8.37781 15.6095 8.36471C15.6227 8.35161 15.6358 8.33852 15.6358 8.33852C15.6489 8.32542 15.6489 8.32542 15.662 8.31232C15.6751 8.29922 15.6882 8.28612 15.7013 8.27302L15.7275 8.25993C15.7407 8.24683 15.7669 8.23373 15.78 8.22063C15.7931 8.22063 15.7931 8.22063 15.8062 8.20753C15.8193 8.20753 15.8324 8.19444 15.8324 8.19444C15.8324 8.19444 15.8455 8.19444 15.8455 8.18134H15.8587C15.8849 8.18134 15.898 8.16824 15.9242 8.16824C15.9504 8.16824 15.9767 8.16824 16.0029 8.16824C16.2782 8.15514 16.4749 8.31232 16.6322 8.56118Z" fill="#41E6AF"/>
<path d="M15.3081 8.24678C15.295 8.25988 15.2819 8.28607 15.2688 8.29917C15.2688 8.31227 15.2557 8.31227 15.2557 8.32537C15.2295 8.35156 15.2164 8.39086 15.1901 8.41705C15.0197 8.67901 14.9279 9.01956 14.9017 9.37321C14.9017 9.4256 14.9017 9.4649 14.9017 9.51729C14.9017 9.55658 14.9017 9.60898 14.9017 9.64827V9.66137C14.9017 9.67447 14.9017 9.70066 14.9017 9.71376C14.9017 9.73996 14.9017 9.76615 14.9148 9.79235V9.80545C14.9148 9.81855 14.9148 9.83164 14.9148 9.84474C14.9148 9.87094 14.9279 9.89713 14.9279 9.92333V9.94953C14.9279 9.94953 14.9279 9.94953 14.9279 9.96262C14.9279 9.97572 14.9279 9.98882 14.941 10.0019C14.941 10.0281 14.9541 10.0543 14.9541 10.0805L14.9673 10.1067V10.1198C14.9673 10.146 14.9804 10.1722 14.9935 10.1984C14.9935 10.2115 15.0066 10.2246 15.0066 10.2377V10.2508C15.0197 10.277 15.0197 10.2901 15.0328 10.3163C15.0328 10.3294 15.0459 10.3425 15.059 10.3687V10.3818C15.059 10.3949 15.0721 10.408 15.0721 10.4211C15.0853 10.4342 15.0853 10.4473 15.0853 10.4473C15.0984 10.4865 15.1246 10.5258 15.1508 10.5651L15.1639 10.5782C15.1901 10.6175 15.2033 10.6437 15.2295 10.6699C15.2295 10.683 15.2426 10.683 15.2426 10.6961L15.2557 10.7092C15.2688 10.7354 15.295 10.7485 15.3081 10.7747C15.3213 10.7878 15.3213 10.8009 15.3344 10.8009C15.3606 10.8271 15.3737 10.8402 15.3868 10.8664C15.3999 10.8795 15.413 10.8795 15.413 10.8926H14.0364L13.2366 9.56968L14.0232 8.15509H15.3999C15.3868 8.16819 15.3868 8.16819 15.3737 8.18129L15.3606 8.19438C15.3475 8.20748 15.3344 8.22058 15.3081 8.24678C15.3081 8.24678 15.3213 8.24678 15.3081 8.24678Z" fill="#41E6AF"/>
<path d="M7.4545 15.7782C7.31027 15.7782 7.15294 15.752 6.99561 15.6996C6.82516 15.6472 6.65472 15.5686 6.49738 15.4769C6.0516 15.2019 5.73693 14.8089 5.68449 14.4422C5.65827 14.2719 5.6976 14.1278 5.78938 14.023C5.80249 13.9968 5.82871 13.9837 5.84182 13.9575C5.85493 13.9444 5.86805 13.9444 5.88116 13.9313C5.89427 13.9182 5.89427 13.9182 5.90738 13.9051C5.9336 13.892 5.94671 13.8789 5.97293 13.8659C6.24827 13.7349 6.68094 13.7611 7.1005 13.9575L7.11361 13.9706C7.15294 13.9837 7.19227 14.0099 7.23161 14.023C7.27094 14.0361 7.29716 14.0623 7.3365 14.0885C7.37583 14.1147 7.41516 14.1409 7.4545 14.1671C7.49383 14.1933 7.52005 14.2195 7.55939 14.2457L7.58561 14.2588C7.61183 14.285 7.63805 14.2981 7.66428 14.3243C7.67739 14.3374 7.67739 14.3374 7.6905 14.3505C7.71672 14.3636 7.72983 14.3898 7.74294 14.4029C7.75605 14.416 7.76917 14.4291 7.78228 14.4553C7.79539 14.4815 7.82161 14.4946 7.83472 14.5208C7.84783 14.5339 7.84783 14.5339 7.86094 14.547C7.87406 14.5731 7.90028 14.5862 7.91339 14.6124L7.93961 14.6386C7.95272 14.6648 7.96583 14.6779 7.97894 14.7041V14.7172L7.99206 14.7434C8.01828 14.7696 8.03139 14.8089 8.0445 14.8351C8.05761 14.8613 8.07072 14.9006 8.08383 14.9268L8.09695 14.9399C8.09695 14.953 8.11006 14.9661 8.11006 14.9661C8.11006 14.9792 8.11006 14.9792 8.12317 14.9923C8.12317 15.0185 8.13628 15.0316 8.13628 15.0578C8.13628 15.084 8.14939 15.084 8.14939 15.0971C8.14939 15.1102 8.14939 15.1233 8.14939 15.1233C8.14939 15.1495 8.14939 15.1626 8.14939 15.1757V15.2019C8.14939 15.228 8.14939 15.2411 8.14939 15.2673C8.14939 15.2804 8.14939 15.2804 8.14939 15.2935C8.14939 15.3066 8.14939 15.3197 8.14939 15.3197C8.14939 15.3328 8.14939 15.3328 8.14939 15.3459V15.359C8.14939 15.3852 8.13628 15.3983 8.12317 15.4245C8.11006 15.4507 8.09695 15.4638 8.08383 15.49C7.99206 15.6865 7.74294 15.7913 7.4545 15.7782Z" fill="#41E6AF"/>
<path d="M8.41167 14.8221C8.41167 14.7959 8.39856 14.7828 8.38545 14.7566C8.38545 14.7435 8.38545 14.7435 8.37234 14.7304C8.35923 14.6911 8.34611 14.6649 8.31989 14.6256C8.17567 14.3506 7.93967 14.0886 7.65122 13.8791C7.61189 13.8529 7.57255 13.8267 7.53322 13.8005C7.49389 13.7743 7.45455 13.7481 7.41522 13.735H7.40211C7.389 13.7219 7.37589 13.7219 7.36278 13.7088C7.33655 13.6957 7.32344 13.6826 7.29722 13.6695H7.28411C7.271 13.6695 7.25789 13.6564 7.24478 13.6564C7.21855 13.6433 7.19233 13.6302 7.16611 13.6302L7.13989 13.6171C7.13989 13.6171 7.13989 13.6171 7.12678 13.6171C7.11366 13.6171 7.10055 13.604 7.08744 13.604C7.06122 13.5909 7.035 13.5909 7.00877 13.5778L6.98255 13.5647H6.96944C6.94322 13.5516 6.917 13.5516 6.89077 13.5385C6.87766 13.5385 6.86455 13.5254 6.83833 13.5254H6.82522C6.799 13.5254 6.77277 13.5123 6.75966 13.5123C6.74655 13.5123 6.72033 13.5123 6.70722 13.4992H6.69411C6.681 13.4992 6.66788 13.4992 6.65477 13.4861C6.64166 13.4861 6.62855 13.4861 6.61544 13.4861C6.57611 13.4861 6.52366 13.473 6.48433 13.473H6.47122C6.43188 13.473 6.39255 13.473 6.35322 13.473C6.3401 13.473 6.32699 13.473 6.32699 13.473H6.31388C6.28766 13.473 6.26144 13.473 6.23522 13.4861C6.2221 13.4861 6.20899 13.4861 6.19588 13.4992C6.16966 13.4992 6.14344 13.5123 6.11721 13.5123C6.1041 13.5123 6.09099 13.5254 6.07788 13.5254L6.799 12.3597L8.34611 12.3728L9.1459 13.7874L8.42478 14.9662C8.42478 14.9531 8.42478 14.94 8.41167 14.9269C8.41167 14.9138 8.41167 14.9138 8.41167 14.9007C8.41167 14.8876 8.39856 14.8745 8.39856 14.8483C8.41167 14.8352 8.41167 14.8221 8.41167 14.8221Z" fill="#41E6AF"/>
<path d="M11.1518 16.4725L7.37573 16.4594L6.79884 17.5465L6.4055 18.2931L7.41506 18.28V18.2931L13.184 18.3062L13.7609 17.3108L9.60463 10.1985L1.3577 10.1854L0.833252 11.1023L0.938141 11.2726H0.92503L4.20283 17.0357L5.29105 15.2675L3.37682 12.0192H8.55574L11.1518 16.4725Z" fill="#41E6AF"/>
</svg>
