<?xml version="1.0" encoding="utf-8"?>
<!-- Generator: Adobe Illustrator 26.3.1, SVG Export Plug-In . SVG Version: 6.00 Build 0)  -->
<svg version="1.1" xmlns="http://www.w3.org/2000/svg" xmlns:xlink="http://www.w3.org/1999/xlink" x="0px" y="0px"
	 viewBox="0 0 499.4 499.4" style="enable-background:new 0 0 499.4 499.4;" xml:space="preserve">
<style type="text/css">
	.st0{fill:#FFFFFF;}
	.st1{fill:#2116E5;}
</style>
<g id="图层_2">
	<circle class="st0" cx="251" cy="246.9" r="184.1"/>
</g>
<g id="图层_1">
	<path class="st1" d="M291.5,230.9c0,10.4-9.4,18.8-20.9,18.8h-62.8V212h62.8C282.2,212,291.5,220.5,291.5,230.9z M499.4,249.7
		c0,137.9-111.8,249.7-249.7,249.7S0,387.6,0,249.7S111.8,0,249.7,0S499.4,111.8,499.4,249.7z M341.2,301
		c20.9-17.3,34.2-41.9,34.2-69.4c0-52-46.9-94.1-104.7-94.1H124v224.5h83.8v-36.2h63.5l21.9,36.2h82.2L341.2,301z"/>
</g>
</svg>
