<svg xmlns="http://www.w3.org/2000/svg" width="27" height="26" viewBox="0 0 27 26">
    <g fill="none" fill-rule="evenodd">
        <g>
            <g>
                <g>
                    <g transform="translate(-32.000000, -1153.000000) translate(0.000000, 888.000000) translate(32.000000, 246.000000) translate(0.500000, 19.000000)">
                        <circle cx="13" cy="13" r="13" fill="#FFF"/>
                        <g>
                            <path fill="#50AF95" d="M3.826.09L.016 8.092c-.03.061-.016.135.033.181l10.291 9.862c.061.058.157.058.218 0l10.291-9.861c.05-.047.063-.12.033-.181L17.072.09c-.025-.055-.08-.09-.14-.09H3.967c-.06 0-.116.034-.142.09z" transform="translate(2.600000, 5.200000)"/>
                            <path fill="#FFF" d="M11.771 8.915c-.074.006-.455.028-1.307.028-.677 0-1.158-.02-1.327-.028-2.617-.115-4.57-.57-4.57-1.116 0-.546 1.953-1 4.57-1.118v1.78c.172.013.662.042 1.339.042.813 0 1.22-.034 1.293-.041v-1.78c2.612.117 4.56.573 4.56 1.117s-1.948 1-4.56 1.116h.002zm0-2.416V4.906h3.645v-2.43H5.493v2.43h3.644v1.592c-2.962.136-5.19.723-5.19 1.426s2.228 1.29 5.19 1.426v5.104h2.634V9.348c2.955-.136 5.179-.722 5.179-1.425 0-.702-2.222-1.288-5.18-1.425h.001z" transform="translate(2.600000, 5.200000)"/>
                        </g>
                    </g>
                </g>
            </g>
        </g>
    </g>
</svg>
